<svg version="1" xmlns="http://www.w3.org/2000/svg" width="682.667" height="682.667" viewBox="0 0 512.000000 512.000000"><path d="M56.5 161c-2.2.5-5.5 1.1-7.4 1.5-6 1-17.1 5.9-21.9 9.5-2.5 1.9-6 5.7-7.7 8.4-2.7 4.5-3 5.7-3 13 .1 6.8.6 9.2 3 14.6 1.6 3.6 3.2 6.7 3.5 7 .3.3 1.4 1.8 2.3 3.3 6.1 9.6 23.2 23.9 36.4 30.6 5.7 2.8 129.2 44.6 129.9 43.9.1-.2-9.2-9.8-20.7-21.3-11.8-11.8-21.7-22.4-22.5-24.3-1.4-3.6-1-9.7 1.1-14.7l1.2-3 60.6 60.5c33.4 33.3 62.2 61.3 64.2 62.3 4.4 2.4 38.3 13.7 40.8 13.7 2.7 0 6.7-4.5 6.7-7.6 0-2.3-8.6-17.1-22.5-38.9-10.2-15.9-30.6-49.7-30.3-50 .4-.5 10.6 2.8 14.8 4.8 7.2 3.3 11.9 9.2 25.9 32.2 5.2 8.6 5.4 9 11.7 19l5.2 8.1 8.8 1.8c4.9 1 10 2 11.4 2.2 1.4.2 3.6.7 5 .9 5.7 1.2 7.6 1.5 10 2 2.1.4 41.4 8.2 51.2 10.1 6.6 1.3 10.7.6 17.9-3.3 4-2.1 8.1-4.9 9.1-6.3 2.5-3.5 9-22.8 9-27 0-2-1.5-6.7-3.6-11-2-4.1-3.6-8.8-3.6-10.5 0-4 3.6-14.7 5.8-17.1 4.7-5.2 45.2-60.3 46.1-62.7 2.6-6.7-.5-15-6.7-18.4-5.3-2.9-37.3-13.3-41-13.3-2.1 0-20.9 8.9-56.4 26.6-29.3 14.7-54.9 27.2-56.8 27.9-7.2 2.4-13.2 1.2-44-9-16.2-5.3-30.4-10.1-31.5-10.6-2.5-1.1-76.9-25.8-81-26.9-1.6-.5-19.2-6.3-39-13-19.8-6.6-39.1-12.8-43-13.6-7.9-1.8-32.8-2.6-39-1.4z"/></svg>